<?xml version="1.0" encoding="UTF-8"?>
<svg id="Layer_1" data-name="Layer 1" xmlns="http://www.w3.org/2000/svg" viewBox="0 0 841.89 595.28">
  <defs>
    <style>
      .cls-1 {
        fill: #346734;
      }

      .cls-1, .cls-2, .cls-3, .cls-4, .cls-5, .cls-6, .cls-7 {
        font-family: ArialMT, Arial;
      }

      .cls-1, .cls-5, .cls-6, .cls-7 {
        font-size: 36px;
      }

      .cls-2 {
        fill: #4858a7;
      }

      .cls-2, .cls-4 {
        font-size: 24px;
      }

      .cls-8, .cls-3, .cls-4 {
        fill: #231f20;
      }

      .cls-3 {
        font-size: 18px;
      }

      .cls-3, .cls-9 {
        opacity: .5;
      }

      .cls-10 {
        fill: #d1e8c5;
      }

      .cls-5 {
        fill: #22205f;
      }

      .cls-11 {
        fill: #fbcccc;
      }

      .cls-12 {
        fill: #cb9866;
      }

      .cls-13 {
        fill: #d2edf3;
      }

      .cls-14 {
        fill: #cecbe6;
        stroke: #231f20;
        stroke-miterlimit: 10;
        stroke-width: 5px;
      }

      .cls-6 {
        fill: #653614;
      }

      .cls-15 {
        fill: #cccccb;
      }

      .cls-7 {
        fill: #640d0d;
      }
    </style>
  </defs>
  <g class="cls-9">
    <path class="cls-12" d="M356.23,367.84c-10.93-34.53-20.99-69.31-27.72-104.77-37.82-.13-75.62-1.82-113.4-3.51-25.33-1.13-50.66-2.27-75.99-3.4-14.67-.66-29.34-1.31-44.01-1.97-20.99,57.51-30.2,118.2-39.3,178.46,35.35.86,70.71,1.71,106.06,2.57,46.47,1.13,92.95,2.25,139.43,1.63,15.49-.21,30.98-.61,46.47-1.01,9.91-.26,19.92-.53,29.51-2.91-1.84-1.83-3.13-4.17-3.66-6.65l1.83.87c-2.47-7.58-4.94-15.17-7.42-22.75-1.23-3.78-2.47-7.57-3.7-11.36l-8.1-25.21Z"/>
  </g>
  <g>
    <path class="cls-15" d="M725.22,331.21c-3.19-13.4-7.77-26.59-9.28-40.21-1.6-14.44.31-28.98,1.91-43.42,6.17-55.73,7.79-111.83,4.84-167.76-.79-14.96-2.31-30.9-12.81-42.76-15.43-17.43-44.04-19.85-69.28-20.83-37.83-1.46-75.67-2.93-113.5-4.39-19.1-.74-38.38-1.47-57.19,1.51-18.81,2.98-37.36,10.03-49.93,22.57-15.7,15.66-20.14,38.01-17.22,58.64,2.92,20.63,12.37,40.07,21.72,59.19l1.21,4.46c-9.29-6.63-23.93-5.22-33.24,1.39-9.31,6.61-13.87,17.23-14.94,27.65-.48,4.64-.44,9.56-3.21,13.54-4.8,6.88-17.62,11.47-14.5,19.05,1.56,3.8,6.64,5.45,9.58,8.57,8.68,9.2-5.21,23.38-.55,34.58,2.71,6.5,11.03,9.95,18.91,10.84,7.88.88,15.92-.12,23.79.8,2.09.24,4.36.73,5.61,2.21,1.33,1.57,1.09,3.73.78,5.67-1.21,7.6-2.42,15.19-3.62,22.79-1.23,7.71-2.53,15.62-6.84,22.45-6.97,11.02-20.53,17.39-33.37,23.16-6.41,2.88-12.95,5.8-20.07,6.83-.28.04-.56.07-.84.1,2.64,8.41,5.34,16.82,8.05,25.21,6.58.43,13.16.72,19.76.85,7.22.15,15.37.46,20.14,5.18,7.01,6.92,1.91,17.92,4.67,26.83,4.27,13.77,24.37,17.47,40.72,18.36,87.6,4.74,175.73,2.03,262.73-8.08,3.95-.46,8.07-.99,11.32-2.99,5.32-3.28,6.85-9.46,7.72-15.08,3.99-25.54,2.95-51.67-3.06-76.91Z"/>
    <path class="cls-8" d="M727.64,330.54c-2.98-12.45-7.16-24.67-8.92-37.39-1.83-13.16-.48-26.53.98-39.65,2.95-26.45,5.13-52.96,6.16-79.56,1.03-26.73,1.03-53.51-.02-80.24-.84-21.39-.37-46.6-17.83-62.03-15.2-13.44-37.11-16.14-56.56-17.38-12.22-.78-24.49-1.07-36.73-1.54-13.44-.52-26.88-1.04-40.32-1.56s-26.88-1.04-40.32-1.56-26.21-1.15-39.32-.85c-23.28.55-48.05,4.3-67.56,17.94-8.84,6.18-16.1,14.33-20.79,24.08-4.56,9.48-6.77,19.92-6.97,30.42-.47,24.38,10.01,47.32,20.43,68.78.65,1.33,1.29,2.66,1.94,3.99.05.11.45.98.26.47.01.04.02.08.03.13.08.24.13.5.2.74l.97,3.57,3.67-2.82c-8.91-6.24-21.17-5.73-30.77-1.44-10.19,4.55-17.06,14.42-19.83,25-.69,2.64-1.12,5.33-1.39,8.04s-.36,5.63-1.16,8.35c-1.32,4.51-5.24,7.24-8.86,10.12-3.09,2.46-6.77,5.25-7.85,9.26-1.37,5.14,2.39,8.9,6.28,11.54,1.76,1.2,3.83,2.47,4.98,4.16,1.05,1.55,1.41,3,1.44,4.75.06,3.99-1.53,8.12-2.7,12.12-1.29,4.42-2.37,9.12-1.32,13.7,1.13,4.94,4.92,8.71,9.3,11.01,5.11,2.68,10.82,3.68,16.53,3.95,6.74.32,13.69-.53,20.38.57.96.16,2.11.33,2.91.93.9.68.82,1.89.72,2.9-.3,3.19-.99,6.38-1.49,9.55-1.06,6.66-1.99,13.35-3.24,19.97-1.1,5.82-2.68,11.59-5.99,16.57-2.85,4.28-6.82,7.75-11.04,10.63-4.77,3.25-9.92,5.88-15.14,8.32-5.42,2.54-10.89,5.14-16.56,7.08-2.9.99-5.93,1.85-8.98,2.21-1.53.18-2.95,1.46-2.41,3.16,2.64,8.41,5.34,16.81,8.05,25.21.36,1.11,1.27,1.76,2.41,1.84,4.44.29,8.88.52,13.33.67,3.95.14,7.91.12,11.85.38,5.66.37,12.91,1.6,15.19,7.64,1.07,2.85,1.02,5.95.93,8.95-.09,3.2-.3,6.41.11,9.6.76,6.06,3.9,10.97,8.75,14.61s10.44,5.51,16.08,6.84c6.19,1.46,12.56,2.16,18.89,2.51,17.64.98,35.31,1.61,52.98,1.96,17.7.35,35.4.4,53.1.15,17.7-.25,35.39-.8,53.07-1.66,17.67-.86,35.32-2.01,52.95-3.47,17.51-1.45,35.06-3.03,52.5-5.26,3.81-.49,7.74-1.13,11.04-3.23,2.97-1.89,5.1-4.7,6.46-7.92s1.94-6.41,2.44-9.75c.64-4.26,1.16-8.55,1.53-12.85,1.5-17.23.71-34.63-2.21-51.67-.72-4.2-1.58-8.38-2.56-12.53-.74-3.13-5.56-1.8-4.82,1.33,3.91,16.5,5.7,33.45,5.29,50.4-.2,8.42-.92,16.85-2.23,25.18-.94,5.95-2.63,12.52-8.95,14.73-3.7,1.29-7.73,1.53-11.6,1.96-4.33.49-8.66.96-12.99,1.42-8.67.91-17.34,1.75-26.02,2.51-17.37,1.53-34.77,2.76-52.19,3.7-17.43.94-34.87,1.59-52.32,1.94-17.45.35-34.91.41-52.36.18s-34.9-.76-52.33-1.59c-7.1-.34-14.26-.51-21.3-1.55-5.77-.85-11.69-2.12-16.96-4.68-2.35-1.14-4.53-2.48-6.36-4.2-1.68-1.58-3.12-3.51-3.92-5.53-2.29-5.82-.61-12.25-1.15-18.3-.29-3.28-1.14-6.46-3.16-9.12s-4.99-4.55-8.23-5.66c-6.94-2.39-14.77-1.8-21.99-2.06-4.28-.16-8.56-.38-12.84-.66l2.41,1.84c-2.71-8.39-5.4-16.79-8.05-25.21l-2.41,3.16c6.55-.76,12.67-3.09,18.67-5.72,5.37-2.35,10.75-4.76,15.94-7.49,9.79-5.14,19.41-11.95,24.07-22.34,2.51-5.59,3.67-11.55,4.64-17.57,1.1-6.8,2.17-13.61,3.25-20.42.47-2.96,1.5-6.4.53-9.36s-3.72-4.46-6.6-5.01c-6.6-1.26-13.47-.59-20.14-.75-5.45-.13-11.05-.76-15.95-3.33-3.79-1.99-6.9-5.25-7.22-9.4-.66-8.67,5.69-16.78,4.15-25.7-.85-4.98-4.56-7.88-8.5-10.55-1.55-1.05-3.47-2.39-4.02-4.03-.07-.2-.12-.41-.17-.61-.11-.43,0,.56-.03-.17,0-.18.08-1.18,0-.72.07-.38.18-.75.32-1.11-.19.48.13-.23.15-.27.12-.21.24-.43.38-.63.42-.65.8-1.06,1.47-1.75.76-.77,1.57-1.49,2.41-2.18,1.7-1.42,3.47-2.74,5.16-4.16s3.29-2.98,4.59-4.79c1.77-2.45,2.62-5.41,3.04-8.37.39-2.78.47-5.61.9-8.39s1.05-5.28,1.93-7.82c1.69-4.87,4.42-9.41,8.12-13.03,7.1-6.96,18.07-10.05,27.73-7.35,2.32.65,4.45,1.67,6.43,3.05,1.85,1.29,4.21-.84,3.67-2.82l-.97-3.57c-.58-2.14-1.78-4.11-2.74-6.09-2.72-5.6-5.4-11.22-7.89-16.92-4.81-11.02-8.89-22.47-10.91-34.36-3.37-19.9.38-41.77,14.35-57.02,14.94-16.31,38.01-22.83,59.34-24.92,12.82-1.26,25.73-1.09,38.59-.66,13.2.44,26.4,1,39.6,1.51,26.38,1.02,52.77,2.04,79.15,3.06,10.3.4,20.64.78,30.85,2.27,9.55,1.39,19.24,3.62,27.84,8.14s15.4,11.3,19.36,20.25c4.17,9.42,4.97,20.03,5.51,30.19,1.41,26.19,1.78,52.43,1.17,78.65-.61,26.26-2.23,52.5-4.84,78.65-1.31,13.13-3.3,26.27-3.61,39.48-.16,6.51.2,13,1.18,19.44s2.43,12.25,4.03,18.28,3.29,11.93,4.72,17.95c.75,3.13,5.57,1.8,4.82-1.33Z"/>
  </g>
  <g class="cls-9">
    <path class="cls-15" d="M300.85,336.65c-13.06-10.27-28.54-21.58-45.92-19.18-1.38.19-2.82.51-3.78,1.39-3.71,3.43,3.53,7.39,7.37,10.71,8.44,7.31-.42,20.53,4.48,29.98,3.28,6.32,11.69,9.1,19.34,11.04,25.7,6.54,52.18,10.71,78.87,12.46-2.71-8.39-5.4-16.79-8.05-25.21-19.58,2.43-37.55-9.58-52.32-21.2Z"/>
    <path class="cls-8" d="M302.62,334.88c-10.9-8.57-22.9-17.72-37.02-19.76-3.67-.53-7.31-.6-10.99-.1-3.18.43-6.82,2.05-6.97,5.75-.12,2.8,2.21,5.05,4.19,6.69s4.84,3.24,6.4,5.46c1.43,2.04,1.68,4.4,1.64,6.87-.04,2.87-.49,5.72-.75,8.58-.55,6.12.24,12.23,4.95,16.63s11.18,6.36,17.26,7.92c7.99,2.06,16.06,3.85,24.16,5.43,16.33,3.18,32.85,5.43,49.44,6.75,2.1.17,4.2.32,6.31.46,1.59.1,2.89-1.69,2.41-3.16-2.71-8.39-5.4-16.79-8.05-25.21-.3-.95-1.31-1.97-2.41-1.84-14.88,1.77-28.68-4.94-40.64-13.14-3.39-2.32-6.68-4.79-9.91-7.33-1.06-.83-2.5-1.03-3.54,0-.87.87-1.07,2.7,0,3.54,12.05,9.47,25.44,18.94,40.9,21.53,4.37.73,8.78.92,13.19.4l-2.41-1.84c2.64,8.41,5.34,16.81,8.05,25.21l2.41-3.16c-15.61-1.03-31.15-2.87-46.56-5.58-7.7-1.35-15.37-2.91-22.98-4.68-6.35-1.47-13.14-2.71-19.06-5.58-2.38-1.15-4.74-2.6-6.39-4.72-1.44-1.85-2.11-4.15-2.26-6.42-.35-5.47,1.34-10.88.79-16.34-.28-2.84-1.11-5.48-2.89-7.74-1.67-2.13-4.03-3.57-6.11-5.25-.91-.74-1.85-1.5-2.6-2.41-.52-.62.13.27-.27-.37-.01-.02-.44-.74-.19-.28-.07-.12-.12-.77-.08-.2.01-.29,0-.29-.02.02.08-.27.09-.28.01-.04.18-.08.32-.39.75-.58.6-.27,1.33-.37,1.98-.46,1.63-.24,3.3-.29,4.94-.27,14.8.25,27.66,10.02,38.79,18.77,1.06.83,2.5,1.03,3.54,0,.87-.87,1.07-2.7,0-3.54Z"/>
  </g>
  <g>
    <g>
      <path class="cls-13" d="M434.87,198.7c-1.62-4.24-6.8-6.14-11.39-7.52-2.94-.88-6.69-1.57-8.62.63-1.07,1.22-1.16,2.94-1.19,4.53-.13,5.66.14,12.18,4.87,15.81,3.73,2.86,9.48,2.81,13.41.3,3.93-2.5,6.04-7.07,5.93-11.55-.06-2.72-1-5.61-3.29-7.33"/>
      <path class="cls-8" d="M437.28,198.03c-2.38-5.85-8.92-8.31-14.66-9.67-3.06-.72-6.71-.96-9.19,1.35s-2.34,6.21-2.28,9.4c.11,6.1,1.6,12.92,7.45,16.05s13.54,1.7,17.83-3.31c4.55-5.32,6.03-15.2-.08-20.05-1.06-.84-2.5-1.03-3.54,0-.87.87-1.06,2.69,0,3.54,3.58,2.84,3.04,8.36.84,11.9-2.36,3.8-7.09,5.46-11.34,4.1s-5.72-5.76-6.05-9.78c-.18-2.17-.36-4.62-.02-6.78.32-2.04,2-2.11,3.81-1.85,2.49.36,5.15,1.27,7.43,2.32,1.89.87,4.15,2.11,4.97,4.12.51,1.25,1.66,2.13,3.08,1.75,1.18-.33,2.26-1.82,1.75-3.08h0Z"/>
    </g>
    <g>
      <path class="cls-13" d="M468.77,179.55c.16-4.81-4.96-8.89-10.13-9.07s-9.95,2.78-12.99,6.63c-1.13,1.42-2.1,3.12-1.85,4.89.18,1.26.95,2.37,1.75,3.41,4.04,5.26,10.93,10.17,17.3,7.82,3.43-1.26,5.73-4.49,6.29-7.9s-.45-6.94-2.2-10.01"/>
      <path class="cls-8" d="M471.27,179.55c.05-6.25-5.74-10.78-11.55-11.48-6.32-.75-12.5,2.88-16.23,7.78-2.27,2.98-2.99,6.47-.87,9.76,1.73,2.69,4.08,5.02,6.63,6.93,4.88,3.65,11.79,5.46,17.13,1.62,2.82-2.03,4.72-5.15,5.22-8.59.59-4.04-.56-7.99-2.51-11.51-1.56-2.81-5.88-.29-4.32,2.52,2.11,3.79,3.18,8.91-.06,12.43-3.02,3.27-7.47,2.61-10.97.53-1.97-1.17-3.69-2.71-5.21-4.42-1.32-1.5-2.92-3.15-1.79-5.17,2.02-3.62,6.36-6.63,10.52-6.93,3.87-.28,9.04,2.11,9.01,6.54-.02,3.22,4.98,3.22,5,0h0Z"/>
    </g>
    <g>
      <path class="cls-13" d="M458.12,131.38c-10.09-8.59-10.61-23.8-4.89-35.19,5.72-11.39,16.3-19.85,26.58-27.95,3.34-2.63,6.93-5.37,11.29-5.88s9.51,2.28,9.53,6.38c1.98-13.65,10.61-26.25,23.02-33.61,5.6-3.32,12.25-5.64,18.87-4.72,6.62.92,12.94,5.84,13.47,12.05,7.05-8.18,19.16-12.25,30.31-10.2s20.88,10.13,24.36,20.24c12.66-7.19,27.78-10.61,42.68-9.67,8.7.55,19.56,5.29,18.5,13.34,15.23-11.75,38.23-13.96,56.04-5.39,8.31,4,16.11,11.76,14.58,20.28,7.62-3.95,15.86-7.31,24.61-7.72s18.14,2.62,23.31,9.31c5.16,6.69,4.62,17.18-2.4,21.99,11.88.82,20.74,12.59,20.18,23.67s-8.58,20.77-18.45,26.84c8.07,7.88,11.93,19.34,10.09,30-1.84,10.66-9.32,20.26-19.6,25.14,4.71,3.74,4.05,11.11.14,15.47s-10.04,6.36-15.95,7.82c-16.02,3.96-36.23,3.99-45.99-8.71-17.85,7.45-38.11,9.93-57.57,7.03-6-.89-12.1-2.36-16.96-5.82s-8.18-9.28-6.9-14.79c-14.55,9.16-33.45,12.16-50.63,8.02s-32.36-15.34-40.67-30.01c-9.79,9.54-26.55,12.11-39.34,6.03-12.79-6.08-20.58-20.3-18.28-33.4-9.06,5-20.75.07-29.45-5.7-5.56-3.69-11.47-9.85-8.62-15.55,1.45-2.89,5.96-4.46,8.47-2.24"/>
      <path class="cls-8" d="M459.88,129.61c-8.84-7.64-9.69-20.87-5.03-31.06,2.81-6.15,7.19-11.41,12.01-16.09s10.45-9.28,16-13.46c2.81-2.11,6.2-4.45,9.88-4.18,1.36.1,2.78.6,3.87,1.43.93.71,1.46,1.61,1.5,2.5.04,1.24.92,2.31,2.17,2.46,1.11.13,2.56-.55,2.74-1.79,1.44-9.59,6.05-18.4,12.93-25.21,3.62-3.58,7.81-6.58,12.42-8.77s10.43-3.59,15.62-2.17c4.24,1.15,9,4.47,9.49,9.2.1,1.01.54,1.88,1.54,2.28.88.35,2.07.24,2.73-.52,5.41-6.19,13.45-9.7,21.63-9.98s15.87,2.72,21.7,8.2c3.16,2.97,5.71,6.6,7.15,10.71.54,1.52,2.19,2.33,3.67,1.49,8.5-4.79,18.01-7.88,27.71-8.98,8.16-.93,17.59-1.37,24.95,2.92,1.43.84,2.91,1.98,3.73,3.2,1,1.48,1.24,2.51,1.03,4.37s2.32,3.26,3.76,2.16c8.43-6.45,18.86-9.86,29.44-10.21s21.88,2.04,30.19,8.56c4.06,3.18,8.23,8.17,7.32,13.71-.35,2.15,1.62,3.88,3.67,2.82,9.18-4.74,19.72-8.86,30.24-6.97,8.03,1.45,16.74,6.58,17.33,15.51.26,4.04-1.09,8.27-4.56,10.71-2.06,1.45-1.27,4.46,1.26,4.66,7.51.59,13.93,6.41,16.44,13.34,2.85,7.87.31,16.2-4.72,22.63-3.1,3.96-6.99,7.24-11.24,9.88-1.35.84-1.68,2.77-.51,3.93,5.81,5.74,9.5,13.57,9.79,21.78s-2.67,15.46-7.88,21.28c-3.08,3.44-6.76,6.16-10.91,8.16-1.37.66-1.69,2.95-.51,3.93,3.49,2.88,3.18,7.96.56,11.43-3.41,4.52-9.67,6.27-14.89,7.58-9.9,2.49-20.83,3.58-30.76.67-5.22-1.53-9.83-4.33-13.19-8.65-.48-.62-1.71-.94-2.43-.64-11.38,4.72-23.55,7.44-35.86,8.01-6.2.28-12.42.04-18.57-.72-5.55-.69-11.35-1.76-16.25-4.58-4.48-2.58-8.86-7.64-7.67-13.19.43-2.03-1.72-4.04-3.67-2.82-11.6,7.25-25.47,10.35-39.07,9.3-12.87-1-25.45-6.13-35.35-14.43-5.39-4.51-9.98-9.86-13.47-15.97-.81-1.42-2.78-1.61-3.93-.51-7.2,6.92-18.06,9.78-27.84,8.19-10.2-1.66-18.83-8.09-23.26-17.45-2.28-4.81-3.24-10.41-2.35-15.68.36-2.12-1.63-3.92-3.67-2.82-6.52,3.5-14.4,1.12-20.58-1.99-3.39-1.71-6.79-3.69-9.63-6.23-2.19-1.96-5.04-4.86-4.82-8.05.09-1.41.76-2.45,1.91-3.09.5-.27,1.22-.49,1.65-.51.59-.03,1.09.07,1.38.31,1.05.85,2.51,1.02,3.54,0,.88-.88,1.05-2.68,0-3.54-3.47-2.83-8.61-2.02-11.45,1.37-3.1,3.7-2.25,8.85.31,12.58,2.78,4.05,6.81,7,10.98,9.48s8.69,4.6,13.43,5.66c5.36,1.2,10.9.96,15.81-1.68l-3.67-2.82c-1.92,11.42,2.72,23.18,11.34,30.81,9.07,8.02,21.62,10.65,33.33,8.03,6.38-1.43,12.41-4.5,17.13-9.04l-3.93-.51c6.68,11.7,17.29,21.06,29.49,26.7,13.29,6.14,28.2,7.81,42.56,5.05,8-1.54,15.76-4.53,22.68-8.85l-3.67-2.82c-1.28,5.96,1.44,11.91,5.87,15.88,4.75,4.26,11.05,6.27,17.21,7.38,13.17,2.37,26.79,2.18,39.93-.25,7.36-1.36,14.57-3.5,21.48-6.37l-2.43-.64c7.32,9.39,19.92,12.06,31.24,11.76,5.92-.16,11.83-1.06,17.57-2.5,6.26-1.57,13.15-3.86,17.3-9.13,4.12-5.24,4.75-13.68-.77-18.24l-.51,3.93c8.05-3.88,14.8-10.66,18.36-18.89,3.67-8.49,3.85-18.13.46-26.75-1.98-5.05-4.94-9.61-8.81-13.43l-.51,3.93c8.55-5.31,16.19-13.27,18.8-23.22,2.42-9.21-.49-19.09-7.47-25.58-3.97-3.69-8.91-5.94-14.31-6.37l1.26,4.66c8.58-6.04,9.03-18.35,2.68-26.2-7.21-8.91-19.96-10.95-30.66-9.1-7.06,1.23-13.73,4.13-20.07,7.4l3.67,2.82c2.13-12.87-10.71-21.66-21.26-25.42-11.24-4-23.87-4.23-35.33-1-6.36,1.79-12.44,4.69-17.69,8.71l3.76,2.16c1.02-8.9-9.01-13.76-16.25-15.21-5.02-1-10.29-.95-15.37-.57-5.49.41-10.97,1.34-16.27,2.85-5.93,1.68-11.68,4.08-17.05,7.11l3.67,1.49c-3.02-8.61-9.78-15.66-18.07-19.4-8.76-3.95-18.89-4.24-27.84-.66-4.92,1.97-9.43,4.91-12.93,8.92l4.27,1.77c-.57-5.58-4.35-10.1-9.31-12.54-5.69-2.8-12.23-2.73-18.21-.84-11,3.47-20.54,11.82-26.44,21.62-3.19,5.31-5.4,11.25-6.32,17.38l4.91.66c-.13-3.55-2.53-6.35-5.69-7.77-3.5-1.57-7.29-1.44-10.81,0-3.84,1.57-7.01,4.24-10.23,6.79s-6.13,4.89-9.07,7.48c-10.96,9.64-20.84,22.15-20.23,37.51.3,7.73,3.34,15.26,9.26,20.38,1.02.88,2.53,1,3.54,0,.9-.9,1.03-2.65,0-3.54h0Z"/>
    </g>
  </g>
  <g>
    <path class="cls-11" d="M445.81,408.77c10.87-32.02,29.04-62.98,55.6-90.14s61.65-50.43,103.05-66.02c15.87-5.98,32.87-10.86,50.77-12.36,8.82-.74,18.51-.47,25.5,3.36,3.56,1.95,6.11,4.68,8.15,7.51,13.02,18.08,4.98,42.31-18.09,54.51,19.6-10.25,40.54-19.42,63.28-25.71,9.88-2.74,20.7-4.94,31.03-3.19,17.71,3,27.67,16.53,30.02,29.18,3.57,19.27-5.36,39.09-21.42,54.94s-38.8,27.96-63.47,36.86c-60.63,21.87-132.15,24.81-199.69,18.14-22.52-2.22-45.99-5.41-67.55-.35-.91.21-2.13.38-2.66-.19s1.46-1.05,1.16-.41l4.32-6.15Z"/>
    <path class="cls-8" d="M448.22,409.43c8.28-24.34,20.61-47.27,36.31-67.64s33.79-37.21,54.23-51.68,44.49-27.1,68.88-36.03c13.19-4.83,26.82-8.75,40.77-10.6,6.55-.87,13.24-1.43,19.83-.81,5.91.56,11.68,2.36,15.93,6.68,6.64,6.76,9.61,16.66,8.02,25.66-1.7,9.65-7.69,18.1-15.5,23.93-2.27,1.7-4.68,3.19-7.17,4.53-2.84,1.52-.33,5.81,2.52,4.32,16.57-8.66,33.67-16.3,51.46-22.08,16.36-5.32,36.26-11.66,52.47-2.61,5.75,3.21,10.38,8.08,13.44,13.9s4.22,12.72,3.94,19.44c-.69,16.57-10.14,31.58-21.7,42.91-12.06,11.82-26.81,20.64-42.04,27.73-16.27,7.57-33.45,13.2-50.85,17.52-17.83,4.44-36,7.45-54.28,9.33-18.68,1.92-37.47,2.69-56.25,2.55-18.81-.14-37.62-1.19-56.34-3.01-19.24-1.86-38.72-4.61-58.05-2.35-2.28.27-4.55.59-6.8.99-1.13.2-2.25.42-3.37.67-.55.12-1.1.29-1.66.37.09-.01-1.29.31-.17.03-.94.24-.37-.76.56.74l.34,1.26v-.12c-.12.42-.23.84-.34,1.26-.44.85-1.38,1.02-2.18.52l-1.15-1.49.04.09v-1.33l-.03.13c-.66,2.84,2.96,4.22,4.57,1.93,1.44-2.05,2.88-4.1,4.32-6.15.78-1.11.2-2.78-.9-3.42-1.25-.73-2.64-.21-3.42.9-1.44,2.05-2.88,4.1-4.32,6.15l4.57,1.93c.61-2.65-2.08-4.12-4.3-3.1-2.49,1.15-2.32,4.41.21,5.4,2.19.86,4.8-.21,6.98-.64,2.33-.46,4.69-.84,7.05-1.11,10.07-1.18,20.25-.96,30.35-.25s20.28,1.92,30.42,2.86c9.84.91,19.71,1.61,29.58,2.08,19.73.94,39.52.95,59.25-.2,19.56-1.14,39.08-3.41,58.32-7.15,18.57-3.6,36.91-8.59,54.57-15.39,17.31-6.66,34.12-15.04,48.81-26.46,13.9-10.81,26.11-24.99,31.09-42.19,2.32-8.02,2.86-16.57,1.2-24.77-1.37-6.77-4.71-13.15-9.34-18.27-5.21-5.78-12.24-9.81-19.79-11.59-9.97-2.35-20.35-.96-30.17,1.45-19.37,4.75-38.12,12.26-56.06,20.9-4.21,2.03-8.38,4.13-12.53,6.3l2.52,4.32c9.97-5.32,18.46-13.52,22.81-24.07,3.85-9.36,3.6-19.93-.89-29.02-2.64-5.34-6.69-10.36-11.97-13.26-5.77-3.17-12.59-4-19.08-4.03-7.15-.04-14.34.88-21.38,2.1s-14.45,3.02-21.51,5.15c-26.16,7.87-51.37,19.83-74.27,34.68-21.69,14.06-41.54,31.07-58.23,50.83-17.39,20.59-31.28,43.95-40.95,69.12-1.12,2.92-2.18,5.85-3.19,8.81s3.79,4.36,4.82,1.33Z"/>
  </g>
  <g>
    <path class="cls-10" d="M330.98,249.94c-15.04-6.58-25.41-20.35-26.21-34.78,40.11-21.15,64.06-62.8,59.18-102.89-1.02-8.38-3.21-16.69-7.05-24.45-9.22-18.61-27.6-33.13-48.41-42.69s-44.05-14.6-67.27-18.31c-25.05-4-50.99-6.56-75.91-1.97-35.07,6.45-64.82,26.51-88.48,49.57-10.61,10.34-20.39,21.58-26.23,34.41s-7.43,27.47-1.71,40.34c3.62,8.15,9.97,15.23,17.12,21.45,11.74,10.23,25.85,18.46,41.22,24.18,46.84,17.43,103.95,11.55,146.42,35.84,9.18,5.25,17.47,11.83,27.64,15.49,13.43,4.84,28.65,4.08,43.11,2.47"/>
    <path class="cls-8" d="M332.24,247.78c-13.04-5.77-24.08-17.89-24.97-32.62l-1.24,2.16c11.42-6.05,21.92-13.91,30.85-23.26,8.52-8.92,15.7-19.21,20.87-30.42,5.05-10.94,8.25-22.67,9.1-34.71.97-13.67-1.15-27.77-6.81-40.29s-14.36-22.04-24.59-30.09c-11.22-8.83-23.92-15.39-37.26-20.4-14.63-5.49-29.9-9.08-45.25-11.88-15.87-2.89-31.93-5.26-48.06-6.1-15.83-.82-31.82.03-47.28,3.73-13.61,3.27-26.7,8.65-38.9,15.49s-23.11,14.84-33.45,23.83-21.19,19.64-29.38,31.41-14.25,26.58-12.86,41.47c.69,7.36,3.1,14.36,7.13,20.56s8.98,11.28,14.4,15.97c11.13,9.63,23.88,17.18,37.47,22.77,12.8,5.26,26.3,8.56,39.88,11.07,13.71,2.53,27.55,4.27,41.34,6.32,13.54,2.02,27.08,4.33,40.25,8.12,6.31,1.81,12.54,3.96,18.55,6.63,6.33,2.82,12.27,6.27,18.1,9.98,6.24,3.97,12.5,7.93,19.43,10.6s14.82,3.86,22.42,4.12,14.96-.35,22.39-1.17c1.34-.15,2.5-1.04,2.5-2.5,0-1.24-1.15-2.65-2.5-2.5-14.65,1.62-30.12,2.55-44.1-3.01-6.67-2.66-12.69-6.73-18.72-10.55-5.64-3.58-11.42-6.83-17.55-9.52-24.71-10.85-51.86-13.9-78.32-17.73-27.01-3.91-54.29-8.72-78.25-22.51-6.12-3.52-11.99-7.51-17.43-12.02s-10.31-9.14-14.28-14.72-6.85-12.11-7.64-19.05.15-14.15,2.33-20.88c4.4-13.58,13.66-25.09,23.45-35.2,9.28-9.58,19.35-18.46,30.19-26.23s22.62-14.58,35.06-19.58c13.21-5.31,27.12-8.6,41.32-9.69,15.83-1.22,31.74-.09,47.45,1.97,15.31,2.01,30.63,4.65,45.61,8.42,26.53,6.67,53.74,17.83,71.88,39.16,8.92,10.49,14.24,23.24,16,36.87,1.45,11.24.57,22.69-2.33,33.63-6.11,23.05-20.84,43.46-39.87,57.66-4.96,3.7-10.21,7-15.68,9.9-.73.39-1.29,1.32-1.24,2.16.76,12.64,7.91,23.82,17.86,31.33,2.97,2.24,6.19,4.1,9.58,5.61,1.23.55,2.69.36,3.42-.9.62-1.06.34-2.87-.9-3.42h0Z"/>
  </g>
  <text class="cls-1" transform="translate(20 40.89)"><tspan x="0" y="0">Say</tspan></text>
  <text class="cls-5" transform="translate(733.86 40.89)"><tspan x="0" y="0">Think</tspan></text>
  <text class="cls-7" transform="translate(751.86 267.24)"><tspan x="0" y="0">Feel</tspan></text>
  <text class="cls-6" transform="translate(20 267.24)"><tspan x="0" y="0">Do</tspan></text>
  <text class="cls-4" transform="translate(379.58 264.04)"><tspan x="0" y="0">Interviewee</tspan></text>
  <rect class="cls-14" x="76.13" y="473.02" width="168.38" height="70.16"/>
  <rect class="cls-14" x="356.76" y="473.02" width="168.38" height="84.19"/>
  <rect class="cls-14" x="637.39" y="473.02" width="168.38" height="112.25"/>
  <text class="cls-2" transform="translate(98.95 463.02)"><tspan x="0" y="0">Interviewee</tspan></text>
  <text class="cls-2" transform="translate(412.26 463.02)"><tspan x="0" y="0">Need</tspan></text>
  <text class="cls-2" transform="translate(686.22 463.02)"><tspan x="0" y="0">Insight</tspan></text>
  <text class="cls-2" transform="translate(257.93 500.1)"><tspan x="0" y="0">needs a</tspan><tspan x="8.02" y="28.8">way to</tspan></text>
  <text class="cls-2" transform="translate(535.89 514.5)"><tspan x="0" y="0">because</tspan></text>
  <text class="cls-3" transform="translate(70.77 563.02)"><tspan x="0" y="0">Describe person using</tspan><tspan x="5.99" y="21.6">empathetic language</tspan></text>
  <text class="cls-3" transform="translate(374.91 583.02)"><tspan x="0" y="0">Needs are verbs</tspan></text>
  <text class="cls-4" transform="translate(30.6 552.79) rotate(-90)"><tspan x="0" y="0">Problem</tspan><tspan x="-8.01" y="28.8">statement</tspan></text>
  <path class="cls-8" d="M358.64,367.18c-8.51-26.9-16.52-53.98-22.83-81.49-1.77-7.73-3.41-15.49-4.89-23.28-.2-1.07-1.38-1.83-2.41-1.84-30.52-.11-61.03-1.23-91.53-2.55s-60.61-2.7-90.91-4.05c-16.99-.76-33.98-1.52-50.96-2.28-1.16-.05-2.04.83-2.41,1.84-8.18,22.44-14.62,45.47-19.92,68.74-5.27,23.12-9.45,46.48-13.22,69.89-2.14,13.26-4.15,26.55-6.15,39.83-.24,1.61.64,3.12,2.41,3.16,21,.51,41.99,1.02,62.99,1.53,21.02.51,42.04,1.03,63.06,1.52s42.14.94,63.22,1.17,42.15.24,63.22-.12c10.49-.18,20.99-.43,31.48-.7,10.31-.26,20.69-.25,30.9-1.78,2.44-.37,4.86-.84,7.26-1.43,1.86-.46,2.38-2.87,1.1-4.18-1.53-1.57-2.53-3.41-3.02-5.55l-3.67,2.82,1.83.87c1.83.87,4.4-.59,3.67-2.82-5.78-17.72-11.54-35.45-17.25-53.19-.66-2.04-1.31-4.08-1.97-6.12-.98-3.05-5.81-1.75-4.82,1.33,3.77,11.72,7.52,23.44,11.34,35.14,2.63,8.06,5.25,16.11,7.88,24.17l3.67-2.82-1.83-.87c-1.96-.94-4.19.6-3.67,2.82.68,2.95,2.2,5.59,4.31,7.75l1.1-4.18c-9.77,2.39-19.84,2.59-29.84,2.85-10.49.27-20.98.54-31.48.75-20.99.41-41.98.49-62.97.32s-41.98-.58-62.97-1.06c-21.03-.48-42.06-1.01-63.09-1.51-20.91-.51-41.83-1.01-62.74-1.52-2.57-.06-5.15-.12-7.72-.19l2.41,3.16c3.56-23.61,7.14-47.21,11.43-70.7,4.26-23.31,9.23-46.51,15.59-69.34,3.61-12.95,7.67-25.78,12.28-38.42l-2.41,1.84c30.4,1.36,60.79,2.72,91.19,4.08s60.63,2.83,90.96,3.81c17.08.55,34.16.93,51.25.99l-2.41-1.84c5.27,27.7,12.55,54.98,20.67,81.97,2.29,7.62,4.65,15.22,7.05,22.8.97,3.06,5.8,1.75,4.82-1.33Z"/>
</svg>